<svg version="1.1" xmlns="http://www.w3.org/2000/svg" viewBox="0 0 1463.766543109288 649.0376037641365" width="1463.766543109288" height="649.0376037641365">
  <!-- svg-source:excalidraw -->
  
  <defs>
    <style>
      @font-face {
        font-family: "Virgil";
        src: url("https://excalidraw.com/Virgil.woff2");
      }
      @font-face {
        font-family: "Cascadia";
        src: url("https://excalidraw.com/Cascadia.woff2");
      }
    </style>
  </defs>
  <rect x="0" y="0" width="1463.766543109288" height="649.0376037641365" fill="#ffffff"></rect><g stroke-linecap="round" transform="translate(10 35.69148931974132) rotate(0 450.06376628135024 273.80773348348146)"><path d="M0 0 C215.65 0, 431.3 0, 900.13 0 M0 0 C309.76 0, 619.52 0, 900.13 0 M900.13 0 C900.13 135.78, 900.13 271.56, 900.13 547.62 M900.13 0 C900.13 158.22, 900.13 316.45, 900.13 547.62 M900.13 547.62 C657.14 547.62, 414.16 547.62, 0 547.62 M900.13 547.62 C565.36 547.62, 230.58 547.62, 0 547.62 M0 547.62 C0 397.07, 0 246.52, 0 0 M0 547.62 C0 424.81, 0 302, 0 0" stroke="#000000" stroke-width="4" fill="none"></path></g><g transform="translate(13.735455475102071 10) rotate(0 187 12.5)"><text x="0" y="18" font-family="Virgil, Segoe UI Emoji" font-size="20px" fill="#364fc7" text-anchor="start" style="white-space: pre;" direction="ltr">class Game extends React.Component</text></g><g transform="translate(37.427644163309765 49.707811079401154) rotate(0 44 12.5)"><text x="0" y="18" font-family="Virgil, Segoe UI Emoji" font-size="20px" fill="#000000" text-anchor="start" style="white-space: pre;" direction="ltr">render(){</text></g><g transform="translate(46.427644163309765 539.5077988723699) rotate(0 6 12.5)"><text x="0" y="18" font-family="Virgil, Segoe UI Emoji" font-size="20px" fill="#000000" text-anchor="start" style="white-space: pre;" direction="ltr">}</text></g><g stroke-linecap="round" transform="translate(59.201050091043726 113.78436013352086) rotate(0 400.8000183105469 200.40000152587893)"><path d="M0.6 0.28 C260.82 1.11, 521.38 2.26, 802.12 0.37 M-0.38 0.36 C280.82 0.4, 561.97 0.57, 801.78 -0.13 M801.22 0.72 C800.37 92.11, 798.7 184.99, 801.48 400.94 M801.1 -0.29 C799.85 107.93, 800.36 215.39, 801.56 401 M802.13 400.77 C536.17 398.01, 270.65 398.4, -0.66 400.16 M801.62 400.58 C492.85 399.48, 184.98 399.59, -0.25 400.78 M0.89 401.66 C-2.4 241.9, -1.06 84.06, -0.66 0.48 M0.29 400.35 C0.08 248.85, -0.04 96.77, 0.55 0.5" stroke="#000000" stroke-width="1" fill="none"></path></g><g transform="translate(752.0193045074479 484.799242910774) rotate(0 51.5 12.5)"><text x="0" y="18" font-family="Virgil, Segoe UI Emoji" font-size="20px" fill="#c92a2a" text-anchor="start" style="white-space: pre;" direction="ltr">&lt;Board /&gt;</text></g><g transform="translate(73.65553785128861 126.21495019283833) rotate(0 44 12.5)"><text x="0" y="18" font-family="Virgil, Segoe UI Emoji" font-size="20px" fill="#000000" text-anchor="start" style="white-space: pre;" direction="ltr">render(){</text></g><g transform="translate(85.12022143964589 471.13119075500066) rotate(0 6 12.5)"><text x="0" y="18" font-family="Virgil, Segoe UI Emoji" font-size="20px" fill="#000000" text-anchor="start" style="white-space: pre;" direction="ltr">}</text></g><g stroke-linecap="round" transform="translate(183.11689932091065 249.71259297309774) rotate(0 273.23774800992584 84.032994948247)"><path d="M0 0 C197.63 0, 395.25 0, 546.48 0 M0 0 C209.18 0, 418.35 0, 546.48 0 M546.48 0 C546.48 35.23, 546.48 70.45, 546.48 168.07 M546.48 0 C546.48 61.19, 546.48 122.38, 546.48 168.07 M546.48 168.07 C407.35 168.07, 268.22 168.07, 0 168.07 M546.48 168.07 C385.97 168.07, 225.47 168.07, 0 168.07 M0 168.07 C0 134.1, 0 100.13, 0 0 M0 168.07 C0 109.9, 0 51.74, 0 0" stroke="#000000" stroke-width="1" fill="none"></path></g><g transform="translate(131.9089178690009 171.1574196244241) rotate(0 80 12.5)"><text x="0" y="18" font-family="Virgil, Segoe UI Emoji" font-size="20px" fill="#1864ab" text-anchor="start" style="white-space: pre;" direction="ltr">renderSquare(i){</text></g><g transform="translate(614.1553885026019 387.1854633549497) rotate(0 55.5 12.5)"><text x="0" y="18" font-family="Virgil, Segoe UI Emoji" font-size="20px" fill="#c92a2a" text-anchor="start" style="white-space: pre;" direction="ltr">&lt;Square /&gt;</text></g><g transform="translate(150.21471893788316 443.3520175473025) rotate(0 6 12.5)"><text x="0" y="18" font-family="Virgil, Segoe UI Emoji" font-size="20px" fill="#1864ab" text-anchor="start" style="white-space: pre;" direction="ltr">}</text></g><g transform="translate(210.03529551803058 286.5318150372471) rotate(0 247 49.5)"><text x="0" y="17.75" font-family="Virgil, Segoe UI Emoji" font-size="20px" fill="#343a40" text-anchor="start" style="white-space: pre;" direction="ltr">&lt;button</text><text x="0" y="42.5" font-family="Virgil, Segoe UI Emoji" font-size="20px" fill="#343a40" text-anchor="start" style="white-space: pre;" direction="ltr">        className="square"</text><text x="0" y="67.25" font-family="Virgil, Segoe UI Emoji" font-size="20px" fill="#343a40" text-anchor="start" style="white-space: pre;" direction="ltr">        onClick={() =&gt; this.setState({value: 'X'})}</text><text x="0" y="92" font-family="Virgil, Segoe UI Emoji" font-size="20px" fill="#343a40" text-anchor="start" style="white-space: pre;" direction="ltr">      &gt;</text></g><g transform="translate(58.22565194326717 88.94637436979457) rotate(0 190 12.5)"><text x="0" y="18" font-family="Virgil, Segoe UI Emoji" font-size="20px" fill="#364fc7" text-anchor="start" style="white-space: pre;" direction="ltr">class Board extends React.Component</text></g><g transform="translate(186.94107536646368 226.1848757150122) rotate(0 194.49999999999994 12.5)"><text x="0" y="18" font-family="Virgil, Segoe UI Emoji" font-size="20px" fill="#364fc7" text-anchor="start" style="white-space: pre;" direction="ltr">class Square extends React.Component</text></g><g transform="translate(806.6472548308045 553.3109236534758) rotate(0 48.5 12.5)"><text x="0" y="18" font-family="Virgil, Segoe UI Emoji" font-size="20px" fill="#c92a2a" text-anchor="start" style="white-space: pre;" direction="ltr">&lt;Game /&gt;</text></g><g transform="translate(116.54516896629968 615.2769491745973) rotate(0 362.00000000000006 9.5)"><text x="362" y="15" font-family="Cascadia, Segoe UI Emoji" font-size="16px" fill="#495057" text-anchor="middle" style="white-space: pre;" direction="ltr">Figure: Visual representation of the TicTacToe Game Components using React.js</text></g><g stroke-linecap="round" transform="translate(88.97725951279983 170.88027593231095) rotate(0 354.62516258356965 150.63724338365566)"><path d="M75.32 0 M75.32 0 C282.37 -2.54, 487.63 -0.62, 633.93 0 M633.93 0 C687.58 -2.76, 711.7 25.81, 709.25 75.32 M709.25 75.32 C712.22 106.91, 710.12 140.62, 709.25 225.96 M709.25 225.96 C708.41 276.13, 684.67 304.58, 633.93 301.27 M633.93 301.27 C423.64 303.45, 212.5 305.44, 75.32 301.27 M75.32 301.27 C25.1 297.48, -0.6 273.31, 0 225.96 M0 225.96 C2.47 177.75, 2.1 136.58, 0 75.32 M0 75.32 C0.56 22.07, 23.28 0.71, 75.32 0" stroke="#343a40" stroke-width="1.5" fill="none" stroke-dasharray="8 9"></path></g><g stroke-opacity="0.5" fill-opacity="0.5" transform="translate(351.79476719655963 176.22594594709471) rotate(0 99.5 9.5)"><text x="99.5" y="15" font-family="Cascadia, Segoe UI Emoji" font-size="16px" fill="#343a40" text-anchor="middle" style="white-space: pre;" direction="ltr">x9 to paint 9 squares</text></g><g stroke-linecap="round"><g stroke-opacity="0.2" fill-opacity="0.2" transform="translate(132.4981676726061 637.4373299371528) rotate(0 346.2565543151144 0.8001369134918832)"><path d="M0 0 C56.49 0.26, 223.52 1.39, 338.93 1.57 C454.35 1.74, 633.58 1.13, 692.51 1.05 M0 0 C56.49 0.26, 223.52 1.39, 338.93 1.57 C454.35 1.74, 633.58 1.13, 692.51 1.05" stroke="#343a40" stroke-width="1" fill="none"></path></g></g><g transform="translate(189.96913913733806 262.7519397188608) rotate(0 35.5 10)"><text x="0" y="14" font-family="Virgil, Segoe UI Emoji" font-size="16px" fill="#000000" text-anchor="start" style="white-space: pre;" direction="ltr">render(){</text></g><g transform="translate(197.89391445179922 371.9604469624457) rotate(0 5 10)"><text x="0" y="14" font-family="Virgil, Segoe UI Emoji" font-size="16px" fill="#000000" text-anchor="start" style="white-space: pre;" direction="ltr">}</text></g><g stroke-linecap="round" transform="translate(1159.5401094458946 183.45325592845387) rotate(0 147.11321683169672 160.49423312421004)"><path d="M1.29 0.5 C115.48 -1.42, 232.53 -0.52, 294.52 -0.82 M-0.39 0.64 C89.88 -1.6, 180.49 -2.14, 293.54 -0.21 M295.44 -1.31 C295.34 93.64, 294.8 188.52, 293.43 319.66 M293.74 -0.04 C292.93 91.7, 293.09 183.72, 294.73 321.62 M294.76 322.37 C230.89 317.96, 167.7 319.43, -0.27 320.07 M294.95 321.13 C205.98 319.71, 117.13 319.93, 0.57 320.5 M-1.3 321.38 C-0.17 229.41, 0.59 139.68, 0.46 -0.51 M0.42 321.53 C-0.58 235.58, -1.32 150.72, -0.46 0.26" stroke="#000000" stroke-width="1" fill="none"></path></g><g transform="translate(1108.477092018976 196.92386119398492) rotate(0 169.2735774941699 150.46540221703992)"><text x="169.27357749416987" y="12.046540221703989" font-family="Cascadia, Segoe UI Emoji" font-size="12.53878351808667px" fill="#000000" text-anchor="middle" style="white-space: pre;" direction="ltr">return (</text><text x="169.27357749416987" y="27.093080443407977" font-family="Cascadia, Segoe UI Emoji" font-size="12.53878351808667px" fill="#000000" text-anchor="middle" style="white-space: pre;" direction="ltr">      &lt;div&gt;</text><text x="169.27357749416987" y="42.13962066511196" font-family="Cascadia, Segoe UI Emoji" font-size="12.53878351808667px" fill="#000000" text-anchor="middle" style="white-space: pre;" direction="ltr">        &lt;div className="status"&gt;{status}&lt;/div&gt;</text><text x="169.27357749416987" y="57.186160886815955" font-family="Cascadia, Segoe UI Emoji" font-size="12.53878351808667px" fill="#000000" text-anchor="middle" style="white-space: pre;" direction="ltr">        &lt;div className="board-row"&gt;</text><text x="169.27357749416987" y="72.23270110851995" font-family="Cascadia, Segoe UI Emoji" font-size="12.53878351808667px" fill="#000000" text-anchor="middle" style="white-space: pre;" direction="ltr">          {this.renderSquare(0)}</text><text x="169.27357749416987" y="87.27924133022393" font-family="Cascadia, Segoe UI Emoji" font-size="12.53878351808667px" fill="#000000" text-anchor="middle" style="white-space: pre;" direction="ltr">          {this.renderSquare(1)}</text><text x="169.27357749416987" y="102.32578155192792" font-family="Cascadia, Segoe UI Emoji" font-size="12.53878351808667px" fill="#000000" text-anchor="middle" style="white-space: pre;" direction="ltr">          {this.renderSquare(2)}</text><text x="169.27357749416987" y="117.37232177363191" font-family="Cascadia, Segoe UI Emoji" font-size="12.53878351808667px" fill="#000000" text-anchor="middle" style="white-space: pre;" direction="ltr">        &lt;/div&gt;</text><text x="169.27357749416987" y="132.4188619953359" font-family="Cascadia, Segoe UI Emoji" font-size="12.53878351808667px" fill="#000000" text-anchor="middle" style="white-space: pre;" direction="ltr">        &lt;div className="board-row"&gt;</text><text x="169.27357749416987" y="147.4654022170399" font-family="Cascadia, Segoe UI Emoji" font-size="12.53878351808667px" fill="#000000" text-anchor="middle" style="white-space: pre;" direction="ltr">          {this.renderSquare(3)}</text><text x="169.27357749416987" y="162.5119424387439" font-family="Cascadia, Segoe UI Emoji" font-size="12.53878351808667px" fill="#000000" text-anchor="middle" style="white-space: pre;" direction="ltr">          {this.renderSquare(4)}</text><text x="169.27357749416987" y="177.55848266044785" font-family="Cascadia, Segoe UI Emoji" font-size="12.53878351808667px" fill="#000000" text-anchor="middle" style="white-space: pre;" direction="ltr">          {this.renderSquare(5)}</text><text x="169.27357749416987" y="192.60502288215184" font-family="Cascadia, Segoe UI Emoji" font-size="12.53878351808667px" fill="#000000" text-anchor="middle" style="white-space: pre;" direction="ltr">        &lt;/div&gt;</text><text x="169.27357749416987" y="207.65156310385584" font-family="Cascadia, Segoe UI Emoji" font-size="12.53878351808667px" fill="#000000" text-anchor="middle" style="white-space: pre;" direction="ltr">        &lt;div className="board-row"&gt;</text><text x="169.27357749416987" y="222.69810332555983" font-family="Cascadia, Segoe UI Emoji" font-size="12.53878351808667px" fill="#000000" text-anchor="middle" style="white-space: pre;" direction="ltr">          {this.renderSquare(6)}</text><text x="169.27357749416987" y="237.74464354726382" font-family="Cascadia, Segoe UI Emoji" font-size="12.53878351808667px" fill="#000000" text-anchor="middle" style="white-space: pre;" direction="ltr">          {this.renderSquare(7)}</text><text x="169.27357749416987" y="252.7911837689678" font-family="Cascadia, Segoe UI Emoji" font-size="12.53878351808667px" fill="#000000" text-anchor="middle" style="white-space: pre;" direction="ltr">          {this.renderSquare(8)}</text><text x="169.27357749416987" y="267.8377239906718" font-family="Cascadia, Segoe UI Emoji" font-size="12.53878351808667px" fill="#000000" text-anchor="middle" style="white-space: pre;" direction="ltr">        &lt;/div&gt;</text><text x="169.27357749416987" y="282.8842642123758" font-family="Cascadia, Segoe UI Emoji" font-size="12.53878351808667px" fill="#000000" text-anchor="middle" style="white-space: pre;" direction="ltr">      &lt;/div&gt;</text><text x="169.27357749416987" y="297.9308044340798" font-family="Cascadia, Segoe UI Emoji" font-size="12.53878351808667px" fill="#000000" text-anchor="middle" style="white-space: pre;" direction="ltr">    );</text></g><g stroke-linecap="round"><g transform="translate(801.6353122542994 325.7083113864741) rotate(0 177.10472046238317 -42.20035301309912)"><path d="M0 0 C30.78 -15.79, 125.63 -96.45, 184.67 -94.72 C243.7 -93, 325.95 -7.16, 354.21 10.35" stroke="#495057" stroke-width="1.5" fill="none" stroke-dasharray="8 9"></path></g><g transform="translate(801.6353122542994 325.7083113864741) rotate(0 177.10472046238317 -42.20035301309912)"><path d="M354.21 10.35 L339.62 6.86 L347.5 -3.07 L354.21 10.35" stroke="none" stroke-width="0" fill="#495057" fill-rule="evenodd"></path><path d="M354.21 10.35 C349.29 9.17, 344.37 8, 339.62 6.86 M339.62 6.86 C342.61 3.1, 345.59 -0.66, 347.5 -3.07 M347.5 -3.07 C349.76 1.46, 352.03 5.98, 354.21 10.35 M354.21 10.35 C354.21 10.35, 354.21 10.35, 354.21 10.35" stroke="#495057" stroke-width="1.5" fill="none"></path></g></g></svg>